# xmcd
#
# Track frame offsets:
# 150
# 17937
# 39515
# 59077
# 80447
# 102225
# 123365
# 146452
# 167362
# 186135
# 207830
# 228855
# 250237
# 276172
# 298940
# 319067
#
# Disc length: 4468 seconds
#
#
# Revision: 0
# Processed by: cddbd v1.5.1PL2 Copyright (c) Steve Scherf et al.
# Submitted via: FreeRIP 2.945 
#
DISCID=e5117210
DTITLE=Mary J Blige - Mary
DYEAR=1999
DGENRE=R&B
TTITLE0=All That I Can Say
TTITLE1=Sexy
TTITLE2=Deep Inside
TTITLE3=Beautifull One
TTITLE4=i´m In Love
TTITLE5=As
TTITLE6=Time
TTITLE7=Memories
TTITLE8=Don´t Waste Your Time
TTITLE9=Not lookin
TTITLE10=Your Child
TTITLE11=No Happy Holidays
TTITLE12=The Love I Never Had
TTITLE13=Give Me You
TTITLE14=Let  No Man Put Asuder
TTITLE15=Give Me You ( Nino Radio  Mix )
EXTD=
EXTT0=
EXTT1=
EXTT2=
EXTT3=
EXTT4=
EXTT5=
EXTT6=
EXTT7=
EXTT8=
EXTT9=
EXTT10=
EXTT11=
EXTT12=
EXTT13=
EXTT14=
EXTT15=
PLAYORDER=
